HIERARCHY
ROOT Hips
{
	OFFSET 0.000000 0.000000 0.000000
	CHANNELS 6 Xposition Yposition Zposition Zrotation Yrotation Xrotation 
	JOINT LeftUpLeg_virtual
	{
		OFFSET 0.000000 0.000000 0.000000
		CHANNELS 3 Zrotation Yrotation Xrotation
		JOINT LeftUpLeg
		{
			OFFSET 8.479694 -4.795517 -0.379053
			CHANNELS 3 Zrotation Yrotation Xrotation
			JOINT LeftLeg
			{
				OFFSET 0.485052 -32.551468 0.112863
				CHANNELS 3 Zrotation Yrotation Xrotation
				JOINT LeftFoot
				{
					OFFSET 0.438033 -32.635670 -3.012641
					CHANNELS 3 Zrotation Yrotation Xrotation
					JOINT LeftToeBase
					{
						OFFSET 0.970169 -13.225353 11.864223
						CHANNELS 3 Zrotation Yrotation Xrotation
						End Site
						{
							OFFSET 0.000000 0.000000 0.000000
						}
					}
				}
			}
		}
	}
	JOINT RightUpLeg_virtual
	{
		OFFSET 0.000000 0.000000 0.000000
		CHANNELS 3 Zrotation Yrotation Xrotation
		JOINT RightUpLeg
		{
			OFFSET -8.479694 -4.795517 -0.379053
			CHANNELS 3 Zrotation Yrotation Xrotation
			JOINT RightLeg
			{
				OFFSET -0.484100 -32.551483 0.112903
				CHANNELS 3 Zrotation Yrotation Xrotation
				JOINT RightFoot
				{
					OFFSET -0.438985 -32.635651 -3.012681
					CHANNELS 3 Zrotation Yrotation Xrotation
					JOINT RightToeBase
					{
						OFFSET -0.970169 -13.225354 11.864223
						CHANNELS 3 Zrotation Yrotation Xrotation
						End Site
						{
							OFFSET 0.000000 0.000000 0.000000
						}
					}
				}
			}
		}
	}
	JOINT Spine_virtual
	{
		OFFSET 0.000000 0.000000 0.000000
		CHANNELS 3 Zrotation Yrotation Xrotation
		JOINT Spine
		{
			OFFSET 0.000000 7.722015 1.166203
			CHANNELS 3 Zrotation Yrotation Xrotation
			JOINT Spine1
			{
				OFFSET 0.000000 12.024086 0.248766
				CHANNELS 3 Zrotation Yrotation Xrotation
				JOINT Spine2
				{
					OFFSET -0.000000 11.503036 -0.491240
					CHANNELS 3 Zrotation Yrotation Xrotation
					JOINT Neck_virtual
					{
						OFFSET 0.000000 0.000000 0.000000
						CHANNELS 3 Zrotation Yrotation Xrotation
						JOINT Neck
						{
							OFFSET 0.000000 18.430687 -3.123054
							CHANNELS 3 Zrotation Yrotation Xrotation
							JOINT Head
							{
								OFFSET -0.000000 9.051071 1.034021
								CHANNELS 3 Zrotation Yrotation Xrotation
								End Site
								{
									OFFSET 0.000000 0.000000 0.000000
								}
							}
						}
					}
					JOINT LeftShoulder_virtual
					{
						OFFSET 0.000000 0.000000 0.000000
						CHANNELS 3 Zrotation Yrotation Xrotation
						JOINT LeftShoulder
						{
							OFFSET 6.197824 13.665230 -4.064723
							CHANNELS 3 Zrotation Yrotation Xrotation
							JOINT LeftArm
							{
								OFFSET 7.778132 -0.187073 -1.709282
								CHANNELS 3 Zrotation Yrotation Xrotation
								JOINT LeftForeArm
								{
									OFFSET 21.954697 0.000000 -2.041093
									CHANNELS 3 Zrotation Yrotation Xrotation
									JOINT LeftHand
									{
										OFFSET 22.992908 0.000000 -0.870901
										CHANNELS 3 Zrotation Yrotation Xrotation
										End Site
										{
											OFFSET 0.000000 0.000000 0.000000
										}
									}
								}
							}
						}
					}
					JOINT RightShoulder_virtual
					{
						OFFSET 0.000000 0.000000 0.000000
						CHANNELS 3 Zrotation Yrotation Xrotation
						JOINT RightShoulder
						{
							OFFSET -6.197824 13.665230 -4.064723
							CHANNELS 3 Zrotation Yrotation Xrotation
							JOINT RightArm
							{
								OFFSET -7.778132 -0.187073 -1.709282
								CHANNELS 3 Zrotation Yrotation Xrotation
								JOINT RightForeArm
								{
									OFFSET -21.954697 0.000000 -2.041093
									CHANNELS 3 Zrotation Yrotation Xrotation
									JOINT RightHand
									{
										OFFSET -22.992908 0.000000 -0.870901
										CHANNELS 3 Zrotation Yrotation Xrotation
										End Site
										{
											OFFSET 0.000000 0.000000 0.000000
										}
									}
								}
							}
						}
					}
				}
			}
		}
	}
}
MOTION
Frames: 9
Frame Time: 0.033333
59.467281 82.070114 -5.885216 -179.938328 3.738663 -179.945992 -4.423152 1.717754 10.598973 2.485217 -5.564896 -24.675636 6.366725 7.225772 23.822612 -6.531205 -6.707057 -4.778207 0.000000 0.000000 0.000000 -0.205496 1.698760 10.665090 -1.900755 -0.013381 -13.652482 -2.819159 3.039069 20.709731 9.587792 10.585911 -11.681920 0.000000 0.000000 0.000000 3.198495 3.459992 2.096654 -5.772782 -0.118423 -2.132898 0.156057 -3.939503 3.292492 -0.025946 -0.015034 0.034952 -0.014798 -2.995730 4.382600 0.033464 3.958118 -19.493068 0.000000 0.000000 0.000000 1.244772 -2.115152 1.810938 15.361299 5.478143 -6.618436 -13.888007 -5.654919 -33.233378 -7.401867 -18.497570 -5.923151 0.000000 0.000000 0.000000 -2.610584 -0.952749 1.188415 1.302619 -5.562784 -8.704152 32.683691 -5.751196 -37.310014 -0.837982 25.057095 -10.181077 0.000000 0.000000 0.000000 
59.445549 82.064438 -5.872841 179.969078 3.700456 -179.850601 -4.495543 1.712180 10.543540 2.397972 -5.413508 -24.742143 6.310081 7.493144 23.772986 -6.480243 -6.663166 -4.759056 0.000000 0.000000 0.000000 -0.274925 1.880530 10.720163 -2.032205 0.269660 -13.670125 -2.966589 3.334606 20.730420 9.631333 10.681599 -12.263978 0.000000 0.000000 0.000000 3.109684 3.453761 2.103355 -5.805198 -0.142049 -2.148587 0.117605 -3.963624 3.259079 -0.018212 -0.042531 0.021759 -0.000311 -2.912335 4.454915 0.015681 4.095341 -19.429708 0.000000 0.000000 0.000000 1.272510 -2.055310 1.877541 15.289305 5.470013 -6.573370 -14.059168 -5.602549 -33.105541 -7.349915 -18.418867 -5.834473 0.000000 0.000000 0.000000 -2.570752 -0.906456 1.258644 1.297096 -5.562379 -8.722197 32.703089 -5.762328 -37.307470 -0.821599 25.104418 -10.125690 0.000000 0.000000 0.000000 
59.431030 82.057999 -5.861245 -179.928110 3.635856 -179.907388 -4.442636 1.742895 10.609304 2.436808 -5.405052 -24.762345 6.298226 7.545312 23.810460 -6.558403 -6.768704 -4.779196 0.000000 0.000000 0.000000 -0.216179 1.870794 10.801872 -2.022867 0.351946 -13.733040 -2.943165 3.381151 20.827634 9.574470 10.607165 -12.252120 0.000000 0.000000 0.000000 3.138409 3.450640 2.241624 -5.755917 -0.126253 -2.104248 0.153835 -3.944446 3.243482 -0.003737 -0.030659 0.025616 -0.071088 -2.989614 4.384752 0.103215 4.033783 -19.377687 0.000000 0.000000 0.000000 1.230869 -2.127045 1.765153 15.269735 5.289684 -6.593497 -14.341493 -5.359959 -32.897350 -7.336892 -18.452453 -5.729508 0.000000 0.000000 0.000000 -2.663370 -0.921334 1.188444 1.267146 -5.627165 -8.719064 32.647809 -5.882083 -37.272773 -0.847961 25.239818 -10.093080 0.000000 0.000000 0.000000 
59.441109 82.056374 -5.844744 -179.943711 3.577203 -179.946825 -4.466710 1.773968 10.660248 2.491741 -5.461666 -24.834529 6.283636 7.579485 23.791202 -6.600157 -6.825426 -4.711847 0.000000 0.000000 0.000000 -0.207025 1.882217 10.861871 -2.030798 0.346129 -13.822418 -2.938342 3.402913 20.954566 9.534319 10.542797 -12.261364 0.000000 0.000000 0.000000 3.128313 3.463281 2.357742 -5.735499 -0.109003 -2.077915 0.138377 -3.927534 3.218109 -0.033304 -0.031106 0.041406 -0.011905 -2.944507 4.297357 0.289391 4.003475 -19.234653 0.000000 0.000000 0.000000 1.227758 -2.053293 1.762296 15.257744 5.076384 -6.626298 -14.568831 -5.376535 -32.721063 -7.296366 -18.466217 -5.650974 0.000000 0.000000 0.000000 -2.618527 -0.951463 1.152110 1.230580 -5.685180 -8.814836 32.538758 -5.982885 -37.407659 -0.820630 25.398922 -9.945299 0.000000 0.000000 0.000000 
59.478691 82.055283 -5.822307 -179.933616 3.509430 -179.888331 -4.468763 1.761996 10.632065 2.561644 -5.528685 -24.896936 6.293758 7.622891 23.799600 -6.615133 -6.852336 -4.709291 0.000000 0.000000 0.000000 -0.202151 1.854037 10.851499 -1.978023 0.322171 -13.934248 -2.927396 3.391325 21.102132 9.540303 10.514759 -12.294032 0.000000 0.000000 0.000000 3.079456 3.448603 2.375386 -5.701934 -0.118163 -2.079613 0.159912 -3.913996 3.156975 0.002026 -0.041142 0.016363 -0.067759 -2.960365 4.283708 0.442583 3.895643 -19.062245 0.000000 0.000000 0.000000 1.226239 -2.142867 1.685447 15.248095 4.925076 -6.592984 -14.742048 -5.291381 -32.502879 -7.135208 -18.533143 -5.448060 0.000000 0.000000 0.000000 -2.668180 -0.903953 1.146089 1.223885 -5.669114 -8.625229 32.419097 -6.030168 -37.607069 -0.881858 25.575129 -9.853622 0.000000 0.000000 0.000000 
59.543369 82.059807 -5.793797 -179.947576 3.344887 -179.939626 -4.503018 1.702672 10.647676 2.667053 -5.645366 -24.878556 6.320871 7.611342 23.813021 -6.641007 -6.867891 -4.692964 0.000000 0.000000 0.000000 -0.219431 1.798027 10.886796 -1.927266 0.356005 -13.980338 -2.883511 3.358938 21.181528 9.462839 10.425853 -12.293560 0.000000 0.000000 0.000000 3.054374 3.412056 2.411288 -5.641908 -0.137769 -2.004127 0.166330 -3.923509 3.141144 -0.019854 -0.086370 0.031083 0.000871 -2.862309 4.156098 0.668545 3.843479 -18.841644 0.000000 0.000000 0.000000 1.234844 -2.003102 1.629050 15.228844 4.532849 -6.587515 -14.881579 -5.228834 -32.187786 -6.941465 -18.670078 -5.416240 0.000000 0.000000 0.000000 -2.645005 -0.835423 1.064204 1.260608 -5.577202 -8.563711 32.182239 -6.023788 -37.883217 -0.928487 25.692431 -9.686856 0.000000 0.000000 0.000000 
59.647797 82.068871 -5.763077 179.987287 3.484898 -179.868032 -4.548127 1.780113 10.589753 2.765877 -5.783286 -24.874723 6.318362 7.706654 23.727982 -6.596283 -6.793991 -4.645066 0.000000 0.000000 0.000000 -0.271977 1.952140 10.805726 -1.841137 0.231281 -14.014016 -2.881435 3.303795 21.236368 9.502349 10.449886 -12.293406 0.000000 0.000000 0.000000 2.946182 3.515658 2.314326 -5.599840 -0.045848 -1.959016 0.155489 -3.834010 3.119085 -0.034162 -0.018039 0.036982 0.037007 -2.841811 4.070039 0.801386 3.674156 -18.554918 0.000000 0.000000 0.000000 1.254921 -1.979475 1.615809 15.147334 4.252584 -6.670316 -15.080243 -5.152639 -32.162866 -6.843388 -18.784342 -5.128704 0.000000 0.000000 0.000000 -2.581523 -0.867033 0.972002 1.219123 -5.541794 -8.440777 32.047135 -5.986799 -38.258273 -0.950893 25.786638 -9.415623 0.000000 0.000000 0.000000 
59.777653 82.079025 -5.735972 -179.957767 3.607686 -179.900025 -4.511846 1.939706 10.551099 2.931983 -5.857271 -24.804489 6.337429 7.671589 23.674718 -6.655510 -6.829144 -4.601919 0.000000 0.000000 0.000000 -0.223208 2.082136 10.736150 -1.711829 0.173675 -13.964780 -2.866083 3.295102 21.312222 9.497627 10.459000 -12.266870 0.000000 0.000000 0.000000 2.941967 3.527182 2.261228 -5.459071 -0.009215 -1.868026 0.190414 -3.788762 3.090340 -0.003174 -0.006331 0.035990 0.032365 -2.821411 3.948951 0.954230 3.469219 -18.191890 0.000000 0.000000 0.000000 1.222580 -1.882940 1.510046 14.977398 3.997478 -6.595930 -15.377908 -4.925782 -31.864052 -6.616299 -19.117501 -4.876510 0.000000 0.000000 0.000000 -2.609222 -0.769757 0.870540 1.319877 -5.303063 -8.314147 31.858905 -5.989899 -38.477410 -1.085517 25.859330 -9.259634 0.000000 0.000000 0.000000 
59.928688 82.084740 -5.719425 179.981454 3.566643 -179.936402 -4.579563 1.914728 10.508156 3.048822 -6.018483 -24.703829 6.306928 7.640800 23.644780 -6.652717 -6.794774 -4.579684 0.000000 0.000000 0.000000 -0.295383 2.057449 10.643351 -1.606660 0.137816 -13.903924 -2.808313 3.223375 21.432183 9.444628 10.452788 -12.244024 0.000000 0.000000 0.000000 2.892826 3.559654 2.179063 -5.329020 0.060485 -1.764665 0.155205 -3.700338 3.089642 -0.040549 0.029239 0.055002 0.090617 -2.731012 3.848583 1.005134 3.207910 -17.743694 0.000000 0.000000 0.000000 1.246906 -1.863884 1.513845 14.731338 3.778356 -6.640336 -15.833809 -4.748374 -31.895467 -6.323465 -19.656735 -4.697180 0.000000 0.000000 0.000000 -2.542025 -0.809445 0.762656 1.446713 -5.208648 -8.072956 31.814652 -6.131064 -38.713751 -1.240321 26.047136 -9.012545 0.000000 0.000000 0.000000 
